<?xml version="1.0" standalone="no"?>
<!DOCTYPE svg PUBLIC "-//W3C//DTD SVG 20010904//EN"
 "http://www.w3.org/TR/2001/REC-SVG-20010904/DTD/svg10.dtd">
<svg version="1.0" xmlns="http://www.w3.org/2000/svg"
 width="311.000000pt" height="311.000000pt" viewBox="0 0 311.000000 311.000000"
 preserveAspectRatio="xMidYMid meet">
<metadata>
Created by potrace 1.11, written by Peter Selinger 2001-2013
</metadata>
<g transform="translate(0.000000,311.000000) scale(0.100000,-0.100000)"
fill="#000000" stroke="none">
<path d="M1396 2814 c-9 -8 -16 -20 -16 -25 0 -5 -12 -28 -26 -50 -34 -54 -84
-181 -84 -213 0 -26 -31 -66 -50 -66 -14 0 -12 58 2 62 7 3 5 7 -6 11 -16 6
-17 1 -14 -53 2 -33 0 -60 -4 -60 -4 0 -8 -15 -8 -34 0 -18 -7 -39 -15 -46 -8
-7 -15 -22 -15 -33 0 -11 -8 -29 -17 -39 -10 -12 -16 -32 -15 -53 3 -42 5 -42
-188 -50 -426 -17 -539 -24 -560 -35 -10 -5 -28 -10 -40 -10 -32 0 -35 -27 -7
-63 13 -17 69 -77 123 -133 55 -55 111 -114 125 -130 15 -16 85 -84 157 -152
72 -68 134 -132 137 -142 3 -10 -3 -33 -15 -52 -11 -18 -20 -48 -20 -65 0 -18
-4 -33 -8 -33 -17 0 -69 -87 -81 -135 -15 -60 -26 -75 -57 -75 -13 0 -24 -4
-24 -10 0 -5 5 -10 11 -10 13 0 3 -108 -11 -125 -4 -5 -13 -29 -19 -52 -7 -24
-16 -43 -21 -43 -6 0 -10 -7 -10 -15 0 -8 -4 -15 -9 -15 -5 0 -15 -16 -22 -35
-7 -19 -18 -35 -25 -35 -14 0 -12 -25 5 -65 11 -25 10 -37 -4 -75 -27 -72 -57
-181 -51 -187 3 -3 24 11 48 31 23 20 67 48 98 62 66 31 68 32 172 90 46 26
173 93 283 149 110 56 238 123 284 149 46 25 86 46 90 46 4 0 34 -26 68 -57
34 -32 83 -77 110 -100 26 -23 59 -53 73 -65 38 -34 116 -97 191 -153 37 -27
121 -98 187 -158 66 -59 125 -107 131 -107 16 0 51 42 51 62 0 10 -7 30 -16
43 -9 14 -14 40 -13 63 2 22 -2 47 -9 55 -7 7 -13 26 -14 40 -1 15 -8 29 -15
31 -7 3 -13 16 -13 30 0 13 -4 26 -10 28 -5 2 -12 17 -15 33 -11 66 -23 133
-34 184 -12 57 -9 71 15 71 8 0 12 5 9 10 -3 6 -17 10 -31 10 -17 0 -24 5 -24
19 0 11 -4 22 -10 26 -5 3 -7 12 -3 20 3 9 1 21 -5 28 -15 19 -44 116 -38 126
4 5 -3 28 -14 49 -30 58 -22 117 23 157 53 46 230 163 317 209 30 16 62 34 70
41 8 6 42 26 75 45 33 18 99 61 147 97 48 35 110 75 138 89 27 13 50 28 50 33
0 5 9 13 20 16 11 3 20 10 20 14 0 4 -57 21 -127 39 -71 18 -137 35 -148 38
-11 3 -47 10 -80 15 -33 6 -89 14 -125 20 -36 6 -94 15 -130 20 -36 5 -81 14
-100 20 -19 5 -73 11 -120 12 -59 1 -96 7 -120 20 -31 16 -36 16 -46 2 -10
-14 -14 -14 -40 0 -16 8 -36 12 -45 10 -21 -7 -41 18 -37 47 1 14 -6 33 -18
46 -28 30 -50 135 -35 168 14 32 14 44 -1 44 -20 1 -58 94 -87 215 -31 127
-24 122 -168 124 -62 1 -85 -3 -97 -15z"/>
<path d="M957 566 c-7 -19 11 -32 24 -19 6 6 5 14 -4 22 -12 9 -16 8 -20 -3z"/>
</g>
</svg>
