<?xml version="1.0" encoding="utf-8"?>
<!-- Generator: Adobe Illustrator 23.0.4, SVG Export Plug-In . SVG Version: 6.00 Build 0)  -->
<svg version="1.1" xmlns="http://www.w3.org/2000/svg" xmlns:xlink="http://www.w3.org/1999/xlink" x="0px" y="0px"
	 viewBox="0 0 792 792" style="enable-background:new 0 0 792 792;" xml:space="preserve">
<style type="text/css">
	.st0{fill:#DDDACA;}
	.st1{fill:#070604;}
</style>
<g id="Layer_2">
	<path class="st0" d="M778.36,369.52c-8.14-74.02-51.62-144.16-97.85-200.78c-14.32-17.54-29.72-34.44-48-47.8
		c-14.51-10.6-30.59-18.81-46.6-26.97c-42.88-21.86-86.8-44.05-134.49-50.53C392.25,35.39,320.83,46.56,264.9,67
		c-33.46,12.23-66.05,32.94-95.81,52.23c-14.96,9.7-29.62,20.01-42.46,32.38c-37.67,36.3-56.78,87.31-73.53,136.87
		c-15.98,47.31-31.06,96.96-24.14,146.41c12.02,85.92,79.93,175.85,137.25,237.77c12.28,13.26,25.23,26.12,40.4,35.95
		c27.5,17.81,60.49,24.59,92.61,31.02c41.05,8.23,82.44,16.48,124.31,16.41c103.51-0.2,204.95-69.65,277.32-138.19
		c11.86-11.23,23.37-23.04,32.07-36.86c12.52-19.88,18.69-42.99,24.69-65.71C770.91,464.92,778.36,421.54,778.36,369.52z"/>
</g>
<g id="Layer_1">
	<path class="st1" d="M533.94,427.46c29.69-25.44,59.05-51.28,88.55-76.94c16.52-10.36,29.63-24.42,46.8-40.48
		c-43.62,3.67-83.71,4.57-123.23,8.78c-3.99-0.62-8.44-0.22-13.44,1.38c-10.14,0.24-20.3,0.15-30.42,0.77
		c-34.69,2.12-34.68,2.21-46.42-28.24c-20.31-60.84-40.63-121.68-60.94-182.52c-1.74,0.13-3.48,0.27-5.21,0.4
		c-13.69,42.66-26.09,85.68-35.28,129.64c-10.51,26.8-15.82,54.96-21.64,82.99c-1.54,1.72-3.34,2.08-5.2,2.07
		c1.74-0.56,3.48-1.22,5.2-2.07c-48.95,3.37-97.7-2.83-146.56-3.28c-1.62-0.56-3.26-0.78-4.91-0.92
		c-18.42-3.19-37.03-0.87-55.45-3.96c-0.36,1.36-0.72,2.71-1.07,4.07c15.76,10.92,31.53,21.84,47.29,32.76l0,0c0,0,0,0,0,0
		c0,0,0,0,0,0c0-0.01-0.01-0.01-0.01-0.02c12.44,11.46,25.07,22.67,40.18,30.63c8.82,10.15,19.56,17.91,30.9,24.93l0,0
		c15.24,16.03,33.25,28.84,50.41,42.56c7.89,6.3,9.5,11.93,6.06,20.92c-20.26,53.07-35.26,108.05-58.4,160.08
		c-7.74,17.4-14.79,35.11-22.15,52.68c0.88,0.69,1.77,1.38,2.66,2.07c34.65-27.24,69.3-54.47,103.95-81.71
		c24.57-21.74,52.42-39.13,78.29-59.14c9.42-7.28,18.39-8.43,27.22,0.75c6.09,4.47,12.18,8.93,18.27,13.4
		c28.77,21.28,57.54,42.56,86.31,63.83c17.52,13.14,34.97,26.35,52.6,39.33c3.13,2.31,6.99,6.41,10.86,3.74
		c5.79-3.98-0.86-8.03-1.82-11.82c-1.71-6.73-5.24-12.99-8.01-19.45c-0.92-2.89-1.64-5.87-2.79-8.67
		c-21.18-51.48-44.68-101.99-63.99-154.26C512.76,445.34,512.68,445.68,533.94,427.46z M304.41,457.51
		c-0.23,0.31-0.34,0.64-0.49,0.97c-0.29-0.42-0.45-0.82-0.75-1.24C303.59,457.34,303.99,457.42,304.41,457.51z"/>
</g>
</svg>
